#!OML:ASF H:\Terrain\Patient Classification 1\Terrain2\Thursday\justin.ASF
:FULLY-SPECIFIED
:DEGREES
2861
root 10.8952 17.9216 21.0595 511.306 -450.461 207.286
lowerback 7.22219 -0.885304 -4.32776
upperback 3.39304 -1.52761 2.44386
thorax -0.354553 -0.873716 5.08162
lowerneck -12.0294 -2.05213 -10.6618
upperneck 40.19 -5.22679 7.15038
head 17.1578 -3.53462 4.04655
rclavicle 1.98785e-015 -7.15625e-015
rhumerus -33.7697 -13.6486 -72.7897
rradius 35.7268
rwrist -13.3565
rhand -21.622 12.5564
rfingers 7.12502
rthumb 4.77373 -17.3698
lclavicle 1.98785e-015 -7.15625e-015
lhumerus -32.9796 3.9181 85.1154
lradius 37.6884
lwrist 2.43135
lhand -18.1045 25.5236
lfingers 7.12502
lthumb 8.16945 55.3456
rfemur -21.2916 -10.628 18.2444
rtibia 54.637
rfoot -7.40531 -5.1387
rtoes -7.53225
lfemur -5.63332 2.30017 -20.8905
ltibia 23.7518
lfoot -7.13219 -17.7405
ltoes 23.9112
2862
root 10.8687 17.8885 21.0402 541.554 -450.606 177.136
lowerback 6.98255 -0.882414 -3.90689
upperback 3.44989 -1.48971 2.39614
thorax -0.181736 -0.855247 4.78212
lowerneck -11.8936 -2.12959 -10.4716
upperneck 40.1106 -5.38147 7.08218
head 17.0899 -3.57511 3.95008
rclavicle 7.7526e-015 2.10712e-014
rhumerus -33.757 -14.5585 -72.8376
rradius 35.4792
rwrist -13.3764
rhand -22.9411 12.384
rfingers 7.12502
rthumb 3.49999 -17.567
lclavicle 7.7526e-015 2.10712e-014
lhumerus -32.811 3.61014 85.0729
lradius 37.9525
lwrist 3.05529
lhand -18.7028 25.9019
lfingers 7.12502
lthumb 7.59204 55.7457
rfemur -19.8854 -10.4126 18.756
rtibia 51.6714
rfoot -8.62085 -5.2635
rtoes -8.45344
lfemur -6.31869 2.11871 -20.5477
ltibia 25.0827
lfoot -7.53441 -17.9276
ltoes 25.0496
2863
root 10.8428 17.8579 21.0349 556.289 -450.888 162.468
lowerback 6.77493 -0.812736 -3.24917
upperback 3.51564 -1.35246 2.23222
thorax -0.0367655 -0.781021 4.22254
lowerneck -11.8311 -2.26372 -10.2714
upperneck 40.1223 -5.70565 7.19022
head 17.1228 -3.66448 3.90721
rclavicle 1.83876e-015 -1.15295e-014
rhumerus -33.9117 -15.841 -72.8004
rradius 35.2528
rwrist -13.6533
rhand -23.3328 12.6636
rfingers 7.12502
rthumb 3.12173 -17.2933
lclavicle 1.83876e-015 -1.15295e-014
lhumerus -32.418 3.81681 84.7206
lradius 37.7889
lwrist 2.86876
lhand -18.9116 25.6753
lfingers 7.12502
lthumb 7.39051 55.5262
rfemur -18.5145 -10.8597 19.274
rtibia 49.1327
rfoot -9.86134 -6.12427
rtoes -10.0692
lfemur -6.88133 1.53632 -20.3039
ltibia 26.2501
lfoot -8.22898 -17.7064
ltoes 25.0792
2864
root 10.8172 17.8462 21.0293 568.97 -451.166 149.845
lowerback 6.6282 -0.726224 -2.67128
upperback 3.51993 -1.2005 2.22072
thorax 0.0198131 -0.698143 3.87027
lowerneck -11.7433 -2.38649 -10.1644
upperneck 40.3112 -5.97236 7.16418
head 17.2397 -3.77296 3.83465
rclavicle -1.36664e-014 -3.97569e-016
rhumerus -34.04 -16.26 -72.7608
rradius 35.1708
rwrist -14.3405
rhand -23.3161 11.9927
rfingers 7.12502
rthumb 3.13788 -17.964
lclavicle -1.36664e-014 -3.97569e-016
lhumerus -32.082 4.25456 84.5565
lradius 37.4151
lwrist 3.3374
lhand -19.744 24.9574
lfingers 7.12502
lthumb 6.58694 54.8349
rfemur -17.2635 -11.5367 19.8618
rtibia 46.9759
rfoot -10.132 -7.47406
rtoes -12.2349
lfemur -7.36364 0.935287 -19.9801
ltibia 27.2801
lfoot -9.33925 -17.3494
ltoes 22.9192
2865
root 10.7945 17.8295 21.0114 578.545 -451.27 140.381
lowerback 6.46802 -0.642144 -2.49408
upperback 3.4575 -1.0733 2.34517
thorax 0.0319931 -0.631833 3.88892
lowerneck -11.5354 -2.43226 -10.2364
upperneck 40.4896 -6.0707 7.10138
head 17.3022 -3.84938 3.80741
rclavicle 1.99779e-014 -7.15625e-015
rhumerus -34.1824 -16.094 -72.7518
rradius 35.1577
rwrist -14.8674
rhand -23.246 11.2773
rfingers 7.12502
rthumb 3.2055 -18.6784
lclavicle 1.99779e-014 -7.15625e-015
lhumerus -31.9749 4.86082 84.5325
lradius 37.2039
lwrist 3.70033
lhand -20.1056 24.6377
lfingers 7.12502
lthumb 6.23791 54.5258
rfemur -16.097 -12.0791 20.5107
rtibia 45.0198
rfoot -10.5915 -9.0096
rtoes -14.2397
lfemur -7.89227 0.917634 -19.674
ltibia 28.238
lfoot -9.85788 -17.3816
ltoes 22.4841
2866
root 10.7736 17.8115 20.9893 594.725 -451.318 124.338
lowerback 6.30972 -0.539577 -2.23701
upperback 3.38919 -0.917879 2.43429
thorax 0.0327934 -0.549719 3.82437
lowerneck -11.393 -2.43246 -10.3729
upperneck 40.6425 -6.14076 7.21759
head 17.3745 -3.90004 3.87975
rclavicle -1.63997e-015 1.59028e-014
rhumerus -34.3223 -16.0681 -72.8216
rradius 35.075
rwrist -15.1032
rhand -23.3167 11.3236
rfingers 7.12502
rthumb 3.13723 -18.6331
lclavicle -1.63997e-015 1.59028e-014
lhumerus -31.998 5.39678 84.3715
lradius 37.2681
lwrist 3.51199
lhand -19.7993 24.7422
lfingers 7.12502
lthumb 6.53356 54.6214
rfemur -15.0225 -12.2022 21.3099
rtibia 43.0908
rfoot -11.1823 -10.5116
rtoes -15.8151
lfemur -8.43531 1.05014 -19.26
ltibia 29.1565
lfoot -9.8231 -17.4798
ltoes 24.5605
2867
root 10.7546 17.7973 20.9762 606.414 -451.502 112.777
lowerback 6.19317 -0.472976 -1.79255
upperback 3.35043 -0.803498 2.47861
thorax 0.0414279 -0.486562 3.61039
lowerneck -11.4477 -2.41121 -10.4927
upperneck 40.8223 -6.15138 7.33702
head 17.5056 -3.91728 3.96223
rclavicle -2.03754e-015 -3.97569e-015
rhumerus -34.2669 -16.0507 -72.9438
rradius 34.7891
rwrist -15.3017
rhand -23.305 11.5007
rfingers 7.12502
rthumb 3.14859 -18.4558
lclavicle -2.03754e-015 -3.97569e-015
lhumerus -31.9579 6.00648 84.1212
lradius 37.2283
lwrist 3.07456
lhand -19.5767 24.1937
lfingers 7.12502
lthumb 6.74846 54.0662
rfemur -14.0731 -11.9535 21.9802
rtibia 41.1245
rfoot -11.5484 -11.6226
rtoes -16.4055
lfemur -8.94217 0.730098 -18.8811
ltibia 30.0582
lfoot -10.0161 -17.2853
ltoes 25.8379
